<?xml version="1.0" standalone="no"?>
<!DOCTYPE svg PUBLIC "-//W3C//DTD SVG 20010904//EN"
 "http://www.w3.org/TR/2001/REC-SVG-20010904/DTD/svg10.dtd">
<svg version="1.0" xmlns="http://www.w3.org/2000/svg"
 width="512.000000pt" height="512.000000pt" viewBox="0 0 512.000000 512.000000"
 preserveAspectRatio="xMidYMid meet">

<g transform="translate(0.000000,512.000000) scale(0.100000,-0.100000)"
fill="#000000" stroke="none">
<path d="M0 3183 c1 -1936 1 -1938 21 -1901 35 67 72 78 264 78 l165 0 -5 -22
c-3 -13 -23 -138 -45 -278 -22 -140 -42 -265 -45 -277 -5 -22 -9 -23 -121 -23
-136 0 -181 16 -213 78 l-20 37 -1 -437 0 -438 338 0 337 1 -37 20 c-40 21
-78 80 -78 121 0 13 175 1116 389 2452 419 2616 389 2455 461 2504 l33 22
-722 0 -721 0 0 -1937z m925 1155 c-3 -13 -23 -138 -45 -278 -22 -140 -42
-265 -45 -277 -5 -22 -10 -23 -106 -23 -122 0 -168 18 -199 80 -18 35 -20 59
-20 220 0 161 2 185 20 220 35 68 70 79 248 80 l152 0 -5 -22z m-240 -1500
c-3 -13 -23 -138 -45 -278 -22 -140 -42 -265 -45 -277 -5 -22 -10 -23 -111
-23 -127 0 -172 18 -204 80 -18 35 -20 59 -20 220 0 161 2 185 20 220 35 68
69 79 253 80 l157 0 -5 -22z"/>
<path d="M1845 5106 c41 -18 71 -54 83 -97 8 -30 -56 -445 -379 -2465 -214
-1336 -394 -2441 -400 -2455 -13 -33 -45 -64 -79 -78 -17 -6 473 -10 1490 -10
1017 0 1507 4 1490 10 -34 14 -66 45 -79 78 -6 14 -186 1119 -400 2455 -323
2020 -387 2435 -379 2465 12 43 42 79 83 97 25 11 -86 13 -715 13 -629 0 -740
-2 -715 -13z m1135 -758 c0 -7 20 -138 45 -292 25 -153 45 -282 45 -287 0 -5
-221 -9 -510 -9 -289 0 -510 4 -510 9 0 5 20 134 45 287 25 154 45 285 45 292
0 9 91 12 420 12 329 0 420 -3 420 -12z m240 -1500 c0 -7 20 -138 45 -292 25
-153 45 -282 45 -287 0 -5 -323 -9 -750 -9 -427 0 -750 4 -750 9 0 5 20 134
45 287 25 154 45 285 45 292 0 9 139 12 660 12 521 0 660 -3 660 -12z m240
-1500 c0 -7 20 -138 45 -292 25 -153 45 -282 45 -287 0 -5 -424 -9 -990 -9
-566 0 -990 4 -990 9 0 5 20 134 45 287 25 154 45 285 45 292 0 9 187 12 900
12 713 0 900 -3 900 -12z"/>
<path d="M3695 5106 c38 -17 81 -67 89 -103 13 -60 776 -4844 776 -4863 0 -39
-39 -99 -78 -119 l-37 -20 338 -1 337 0 0 438 -1 437 -20 -37 c-32 -62 -77
-78 -213 -78 -112 0 -116 1 -121 23 -3 12 -23 137 -45 277 -22 140 -43 265
-45 278 l-5 22 165 0 c192 0 229 -11 264 -78 20 -37 20 -35 21 1901 l0 1937
-727 0 c-614 -1 -723 -3 -698 -14z m835 -766 c70 -36 80 -70 80 -280 0 -161
-2 -185 -20 -220 -31 -62 -77 -80 -199 -80 -96 0 -101 1 -106 23 -3 12 -23
137 -45 277 -22 140 -43 265 -45 278 l-5 22 150 0 c131 0 156 -3 190 -20z
m250 -1500 c70 -36 80 -70 80 -280 0 -161 -2 -185 -20 -220 -32 -62 -77 -80
-204 -80 -101 0 -106 1 -111 23 -3 12 -23 137 -45 277 -22 140 -43 265 -45
278 l-5 22 155 0 c136 0 161 -3 195 -20z"/>
</g>
</svg>
