<svg version="1.1" xmlns="http://www.w3.org/2000/svg" xmlns:xlink="http://www.w3.org/1999/xlink" width="512.000000pt" height="512.000000pt" viewBox="0,0,256,256"><g fill-opacity="0" fill="#000000" fill-rule="nonzero" stroke="none" stroke-width="1" stroke-linecap="butt" stroke-linejoin="miter" stroke-miterlimit="10" stroke-dasharray="" stroke-dashoffset="0" font-family="none" font-weight="none" font-size="none" text-anchor="none" style="mix-blend-mode: normal"><g transform="scale(0.5,0.5)"><g transform="translate(0,512) scale(0.1,-0.1)"><path d="M0,3183c1,-1936 1,-1938 21,-1901c35,67 72,78 264,78h165l-5,-22c-3,-13 -23,-138 -45,-278c-22,-140 -42,-265 -45,-277c-5,-22 -9,-23 -121,-23c-136,0 -181,16 -213,78l-20,37l-1,-437v-438h338l337,1l-37,20c-40,21 -78,80 -78,121c0,13 175,1116 389,2452c419,2616 389,2455 461,2504l33,22h-722h-721zM925,4338c-3,-13 -23,-138 -45,-278c-22,-140 -42,-265 -45,-277c-5,-22 -10,-23 -106,-23c-122,0 -168,18 -199,80c-18,35 -20,59 -20,220c0,161 2,185 20,220c35,68 70,79 248,80h152zM685,2838c-3,-13 -23,-138 -45,-278c-22,-140 -42,-265 -45,-277c-5,-22 -10,-23 -111,-23c-127,0 -172,18 -204,80c-18,35 -20,59 -20,220c0,161 2,185 20,220c35,68 69,79 253,80h157z"></path><path d="M1845,5106c41,-18 71,-54 83,-97c8,-30 -56,-445 -379,-2465c-214,-1336 -394,-2441 -400,-2455c-13,-33 -45,-64 -79,-78c-17,-6 473,-10 1490,-10c1017,0 1507,4 1490,10c-34,14 -66,45 -79,78c-6,14 -186,1119 -400,2455c-323,2020 -387,2435 -379,2465c12,43 42,79 83,97c25,11 -86,13 -715,13c-629,0 -740,-2 -715,-13zM2980,4348c0,-7 20,-138 45,-292c25,-153 45,-282 45,-287c0,-5 -221,-9 -510,-9c-289,0 -510,4 -510,9c0,5 20,134 45,287c25,154 45,285 45,292c0,9 91,12 420,12c329,0 420,-3 420,-12zM3220,2848c0,-7 20,-138 45,-292c25,-153 45,-282 45,-287c0,-5 -323,-9 -750,-9c-427,0 -750,4 -750,9c0,5 20,134 45,287c25,154 45,285 45,292c0,9 139,12 660,12c521,0 660,-3 660,-12zM3460,1348c0,-7 20,-138 45,-292c25,-153 45,-282 45,-287c0,-5 -424,-9 -990,-9c-566,0 -990,4 -990,9c0,5 20,134 45,287c25,154 45,285 45,292c0,9 187,12 900,12c713,0 900,-3 900,-12z"></path><path d="M3695,5106c38,-17 81,-67 89,-103c13,-60 776,-4844 776,-4863c0,-39 -39,-99 -78,-119l-37,-20l338,-1h337v438l-1,437l-20,-37c-32,-62 -77,-78 -213,-78c-112,0 -116,1 -121,23c-3,12 -23,137 -45,277c-22,140 -43,265 -45,278l-5,22h165c192,0 229,-11 264,-78c20,-37 20,-35 21,1901v1937h-727c-614,-1 -723,-3 -698,-14zM4530,4340c70,-36 80,-70 80,-280c0,-161 -2,-185 -20,-220c-31,-62 -77,-80 -199,-80c-96,0 -101,1 -106,23c-3,12 -23,137 -45,277c-22,140 -43,265 -45,278l-5,22h150c131,0 156,-3 190,-20zM4780,2840c70,-36 80,-70 80,-280c0,-161 -2,-185 -20,-220c-32,-62 -77,-80 -204,-80c-101,0 -106,1 -111,23c-3,12 -23,137 -45,277c-22,140 -43,265 -45,278l-5,22h155c136,0 161,-3 195,-20z"></path></g></g></g></svg>